{"title":"Flo Rida - Who Dat Girl (Feat. Akon) - 2010 - KonLive","uid":6119469,"size":30059973,"categoryP":"video","categoryS":"music_videos","magnet":"?xt=urn:btih:06ec5eb91cd5c0b845ea7daa1f08f70eb8bf219e&amp;dn=Flo+Rida+-+Who+Dat+Girl+%28Feat.+Akon%29+-+2010+-+KonLive&amp;tr=udp%3A%2F%2Ftracker.openbittorrent.com%3A80&amp;tr=udp%3A%2F%2Fopen.demonii.com%3A1337&amp;tr=udp%3A%2F%2Ftracker.coppersurfer.tk%3A6969&amp;tr=udp%3A%2F%2Fexodus.desync.com%3A6969","seeders":0,"leechers":0,"uploader":"KonLive","files":-1,"time":1295691707,"description":"Flo Rida - Who Dat Girl (Feat. Akon) (2010)\n\n   General\n      Complete name : Flo Rida - Who Dat Girl (Feat. Akon) (2010) - KonLive.mp4\n      Format : Flash Video\n      File size : 28.7 MiB\n      Duration : 3mn 39s\n      Overall bit rate : 1 097 Kbps\n   Video\n      Format : AVC\n      Format/Info : Advanced Video Codec\n      Format profile : &lt;a class=&quot;__cf_email__&quot; href=&quot;/cdn-cgi/l/email-protection&quot; data-cfemail=&quot;216c40484f616d120f11&quot;&gt;[email&amp;#160;protected]&lt;/a&gt;&lt;script cf-hash='f9e31' type=&quot;text/javascript&quot;&gt;\n/* &lt;![CDATA[ */!function(){try{var t=&quot;currentScript&quot;in document?document.currentScript:function(){for(var t=document.getElementsByTagName(&quot;script&quot;),e=t.length;e--;)if(t[e].getAttribute(&quot;cf-hash&quot;))return t[e]}();if(t&amp;&amp;t.previousSibling){var e,r,n,i,c=t.previousSibling,a=c.getAttribute(&quot;data-cfemail&quot;);if(a){for(e=&quot;&quot;,r=parseInt(a.substr(0,2),16),n=2;a.length-n;n+=2)i=parseInt(a.substr(n,2),16)^r,e+=String.fromCharCode(i);e=document.createTextNode(e),c.parentNode.replaceChild(e,c)}}}catch(u){}}();/* ]]&gt; */&lt;/script&gt;\n      Format settings, CABAC : Yes\n      Format settings, ReFrames : 3 frames\n      Muxing mode : Container profile=&lt;a class=&quot;__cf_email__&quot; href=&quot;/cdn-cgi/l/email-protection&quot; data-cfemail=&quot;88dde6e3e6e7ffe6c8bba6b8&quot;&gt;[email&amp;#160;protected]&lt;/a&gt;&lt;script cf-hash='f9e31' type=&quot;text/javascript&quot;&gt;\n/* &lt;![CDATA[ */!function(){try{var t=&quot;currentScript&quot;in document?document.currentScript:function(){for(var t=document.getElementsByTagName(&quot;script&quot;),e=t.length;e--;)if(t[e].getAttribute(&quot;cf-hash&quot;))return t[e]}();if(t&amp;&amp;t.previousSibling){var e,r,n,i,c=t.previousSibling,a=c.getAttribute(&quot;data-cfemail&quot;);if(a){for(e=&quot;&quot;,r=parseInt(a.substr(0,2),16),n=2;a.length-n;n+=2)i=parseInt(a.substr(n,2),16)^r,e+=String.fromCharCode(i);e=document.createTextNode(e),c.parentNode.replaceChild(e,c)}}}catch(u){}}();/* ]]&gt; */&lt;/script&gt;\n      Duration : 3mn 39s\n      Bit rate : 993 Kbps\n      Width : 640 pixels\n      Height : 480 pixels\n      Display aspect ratio : 4:3\n      Frame rate mode : Variable\n      Frame rate : 23.976 fps\n      Resolution : 24 bits\n      Colorimetry : 4:2:0\n      Scan type : Progressive\n      Bits/(Pixel*Frame) : 0.135\n      Stream size : 26.0 MiB (91%)\n   Audio\n      Format : AAC\n      Format/Info : Advanced Audio Codec\n      Format version : Version 4\n      Format profile : LC\n      Format settings, SBR : No\n      Duration : 3mn 39s\n      Bit rate : 95.9 Kbps\n      Channel(s) : 2 channels\n      Channel positions : L R\n      Sampling rate : 44.1 KHz\n      Resolution : 16 bits\n      Stream size : 2.51 MiB (9%)","torrent":{"xt":"urn:btih:06ec5eb91cd5c0b845ea7daa1f08f70eb8bf219e","amp;dn":"Flo+Rida+-+Who+Dat+Girl+%28Feat.+Akon%29+-+2010+-+KonLive","amp;tr":["udp%3A%2F%2Ftracker.openbittorrent.com%3A80","udp%3A%2F%2Fopen.demonii.com%3A1337","udp%3A%2F%2Ftracker.coppersurfer.tk%3A6969","udp%3A%2F%2Fexodus.desync.com%3A6969"],"infoHash":"06ec5eb91cd5c0b845ea7daa1f08f70eb8bf219e","infoHashBuffer":{"type":"Buffer","data":[6,236,94,185,28,213,192,184,69,234,125,170,31,8,247,14,184,191,33,158]},"announce":[],"urlList":[]}}